<svg xmlns="http://www.w3.org/2000/svg" width="48" height="52" viewBox="0 0 48 52">
    <g fill="#394553" fill-rule="evenodd">
        <path d="M23.964 35.193c-2.497 0-4.955-.118-7.304-.353l.2-1.996c2.283.228 4.673.344 7.104.344 13.505 0 21.797-3.4 21.797-5.838 0-1.808-4.461-4.21-12.989-5.3l.255-1.99c9.23 1.18 14.74 3.906 14.74 7.29 0 5.094-12.264 7.843-23.803 7.843zM9.54 33.68C3.492 32.235.16 29.987.16 27.35c0-4.727 10.207-7.306 20.322-7.765l.091 2.004c-12.01.545-18.407 3.696-18.407 5.761 0 1.157 2.054 2.997 7.84 4.38l-.466 1.95z"/>
        <path d="M23.964 51.13C12.424 51.13.16 48.383.16 43.288V27.35h2.005v15.937c0 2.438 8.293 5.838 21.798 5.838 13.505 0 21.797-3.4 21.797-5.838V27.35h2.006v15.937c0 5.095-12.264 7.844-23.803 7.844zM27.949 26.736h-2.006v-11.72c-.235-.149-.904-.401-1.98-.401-1.075 0-1.743.252-1.978.4v11.721h-2.006v-11.92c0-1.525 2.001-2.207 3.985-2.207 1.983 0 3.985.683 3.985 2.207v11.92z"/>
        <path fill-rule="nonzero" d="M24.06 11.92h-.096c-.5 0-4.013-.939-4.013-4.729 0-3.577 3.234-6.31 3.371-6.425l.642-.534.642.534c.137.115 3.371 2.848 3.371 6.425 0 3.146-2.501 4.458-3.823 4.712l-.094.018zm-.098-8.98c-.785.848-2.006 2.458-2.006 4.251 0 1.914 1.468 2.53 2.005 2.692.558-.168 2.01-.79 2.01-2.692 0-1.781-1.225-3.399-2.01-4.251z"/>
        <path d="M33.047 47.109a3.263 3.263 0 0 1-3.26-3.26v-1.887a.92.92 0 0 0-1.838 0v2.043a2.914 2.914 0 0 1-2.911 2.91 2.915 2.915 0 0 1-2.912-2.91v-4.616a73.775 73.775 0 0 1-4.364-.23v1.622a2.73 2.73 0 0 1-2.727 2.727 2.73 2.73 0 0 1-2.726-2.727v-2.055a.722.722 0 0 0-1.442 0 3.534 3.534 0 0 1-3.527 3.54 3.531 3.531 0 0 1-3.527-3.527v-2.267l.015-.084c0-.002.057-.49-.303-.926-.412-.498-1.25-.799-2.422-.87l.122-2.002c1.802.11 3.11.665 3.89 1.65a3.33 3.33 0 0 1 .704 2.38v2.12c0 .838.683 1.52 1.521 1.52.84 0 1.522-.682 1.522-1.52A2.733 2.733 0 0 1 11.588 36a2.73 2.73 0 0 1 2.727 2.726v2.055a.722.722 0 0 0 1.441 0v-2.22c0-.413.172-.807.473-1.08.3-.275.709-.41 1.12-.373a71.51 71.51 0 0 0 5.296.285 1.52 1.52 0 0 1 1.487 1.511v5.1a.906.906 0 0 0 1.81 0v-2.043a2.929 2.929 0 0 1 2.926-2.925 2.928 2.928 0 0 1 2.925 2.925v1.888c0 .691.562 1.254 1.254 1.254.69 0 1.253-.563 1.253-1.254V41a3.388 3.388 0 0 1 3.385-3.385A3.388 3.388 0 0 1 41.07 41v.328a1.067 1.067 0 0 0 2.13 0V35.22c0-.61.367-1.27.89-1.606 1.078-.692 1.67-1.419 1.67-2.047h2.007c0 1.365-.861 2.614-2.56 3.714v6.047a3.075 3.075 0 0 1-3.072 3.07 3.075 3.075 0 0 1-3.071-3.07V41a1.38 1.38 0 0 0-1.379-1.379 1.38 1.38 0 0 0-1.379 1.38v2.848a3.263 3.263 0 0 1-3.26 3.26z"/>
    </g>
</svg>
