<svg xmlns="http://www.w3.org/2000/svg" width="48" height="48" viewBox="0 0 48 48">
    <path fill="#394553" fill-rule="nonzero" d="M16.733 45.427l1.411-1.411-8.4-8.333c-.538-.537-.806-1.277-.806-2.016 0-.739.268-1.478.806-2.016.538-.605 1.277-.873 2.016-.873a2.9 2.9 0 0 1 2.083.873l8.333 8.333 1.411-1.411-8.4-8.4c-.537-.538-.806-1.277-.806-2.016 0-.672.269-1.411.806-2.016h.067c.538-.538 1.277-.807 2.016-.807.74 0 1.479.27 2.016.807l8.333 8.4 1.411-1.411-8.332-8.4c-.538-.538-.874-1.277-.874-2.016 0-.74.336-1.479.874-2.016l.067-.068a2.691 2.691 0 0 1 1.949-.806c.739 0 1.478.336 2.016.874l8.4 8.332 1.41-1.41-8.4-8.334c-.537-.537-.806-1.276-.806-2.016 0-.739.27-1.478.807-2.083.605-.537 1.277-.806 2.016-.806.739 0 1.478.269 2.083.806l8.333 8.4 1.411-1.411-8.4-8.4c-.538-.538-.806-1.277-.806-2.016 0-.74.268-1.478.873-2.016.538-.538 1.277-.806 2.016-.806.74 0 1.479.268 2.016.806l8.333 8.4 1.411-1.411L31.114 2.352a2.806 2.806 0 0 0-1.95-.806c-.738 0-1.41.268-1.948.806L2.352 27.216a2.691 2.691 0 0 0-.806 1.949c0 .672.268 1.411.806 1.949l14.38 14.313zm3.024-.806l-2.487 2.486c-.336.269-.806.269-1.075 0L1.277 32.19C.403 31.315 0 30.24 0 29.165c0-1.143.403-2.218 1.277-3.024L26.14 1.277C26.947.403 28.022 0 29.165 0c1.075 0 2.15.403 3.024 1.277l14.918 14.918c.269.269.269.74 0 1.075l-2.486 2.487a.91.91 0 0 1-1.143 0l-8.87-8.938a1.327 1.327 0 0 0-.94-.403c-.337 0-.673.134-.942.403a1.327 1.327 0 0 0-.403.941c0 .336.135.672.336.94l8.938 8.938a.7.7 0 0 1 0 1.076L39.11 25.2c-.268.269-.739.269-1.075 0l-8.87-8.938a1.65 1.65 0 0 0-1.008-.336c-.336 0-.672.135-.941.336a1.482 1.482 0 0 0-.403 1.008c0 .336.134.672.403.941l8.938 8.87c.268.337.268.807 0 1.076l-2.487 2.486c-.336.336-.806.336-1.075 0l-8.938-8.87a1.327 1.327 0 0 0-.94-.403c-.336 0-.672.134-.941.336v.067a1.327 1.327 0 0 0-.403.94c0 .337.134.673.403.941l8.87 8.938c.336.269.336.74 0 1.075l-2.486 2.487c-.269.268-.74.268-1.075 0l-8.87-8.938a1.327 1.327 0 0 0-.942-.403c-.336 0-.672.134-.94.403h-.068a1.606 1.606 0 0 0-.336.94c0 .337.068.673.336.942l8.938 8.937c.269.336.269.807 0 1.075l-2.486 2.487a.7.7 0 0 1-1.076 0l-8.937-8.87c-.202-.27-.605-.404-.941-.404-.336 0-.672.135-.94.403-.27.202-.404.605-.404.941 0 .336.134.672.403.941l8.938 8.87a.91.91 0 0 1 0 1.143z"/>
</svg>
