<svg xmlns="http://www.w3.org/2000/svg" width="48" height="48" viewBox="0 0 48 48">
    <path fill="#394553" fill-rule="nonzero" d="M3 40c-1.654 0-3 1.346-3 3s1.346 3 3 3 3-1.346 3-3-1.346-3-3-3zm0 4a1 1 0 1 1 0-2 1 1 0 0 1 0 2zm21 0c3.308 0 6-2.692 6-6a5.99 5.99 0 0 0-1.904-4.358C22.068 17.972 29.82 1.598 29.9 1.434A1 1 0 0 0 28.186.418C27.77 1 18 14.944 18 38c0 3.308 2.692 6 6 6zm.488-31.54c-1.09 6.236-1.284 14.206 1.83 22.136a1 1 0 0 0 .278.39A3.988 3.988 0 0 1 28 38c0 2.206-1.794 4-4 4s-4-1.794-4-4c0-10.602 2.182-19.304 4.488-25.54zM11 42c-1.654 0-3 1.346-3 3s1.346 3 3 3 3-1.346 3-3-1.346-3-3-3zm0 4a1 1 0 1 1 0-2 1 1 0 0 1 0 2zm34-4c-1.654 0-3 1.346-3 3s1.346 3 3 3 3-1.346 3-3-1.346-3-3-3zm0 4a1 1 0 1 1 0-2 1 1 0 0 1 0 2zm-8-6c-1.654 0-3 1.346-3 3s1.346 3 3 3 3-1.346 3-3-1.346-3-3-3zm0 4a1 1 0 1 1 0-2 1 1 0 0 1 0 2zm8-6a1 1 0 0 0 0-2H32.9a1.002 1.002 0 0 0-.996 1.11l.042.318c.026.188.054.376.054.572 0 4.412-3.588 8-8 8s-8-3.588-8-8c0-.19.028-.372.052-.554l.04-.314c.01-.078.004-.178-.006-.256a1 1 0 0 0-.992-.876H1a1 1 0 0 0 0 2h13c0 5.514 4.486 10 10 10s10-4.486 10-10h11z"/>
</svg>
