<svg xmlns="http://www.w3.org/2000/svg" width="48" height="48" viewBox="0 0 48 48">
    <g fill="#394553" fill-rule="nonzero">
        <path d="M36.718 44.165a.999.999 0 0 1-.991-1.13c.447-3.389 1.278-7.28 2.47-11.57a1 1 0 0 1 1.346-.655A2.503 2.503 0 0 0 43 28.5a2.505 2.505 0 0 0-2.003-2.45 1 1 0 0 1-.753-1.294 207.139 207.139 0 0 1 3.817-10.532 1 1 0 0 1 1.843-.045A23.819 23.819 0 0 1 48 24c0 8.055-4.01 15.53-10.728 19.998a1 1 0 0 1-.554.167zm3.145-11.21c-.768 2.857-1.367 5.52-1.788 7.954A21.96 21.96 0 0 0 46 24c0-2.273-.34-4.49-1.012-6.62-.92 2.431-1.769 4.797-2.533 7.067A4.516 4.516 0 0 1 45 28.5a4.505 4.505 0 0 1-5.137 4.455z"/>
        <path d="M25.928 47.919a1 1 0 0 1-.999-1.05c.353-7.104 2.753-16.71 7.133-28.553a1 1 0 0 1 1.367-.557A2.503 2.503 0 0 0 37 15.5a2.486 2.486 0 0 0-1.769-2.39 1 1 0 0 1-.636-1.332c.84-2.079 1.73-4.2 2.643-6.305a1 1 0 0 1 1.533-.39 24.153 24.153 0 0 1 7.134 9.097 1 1 0 0 1 .02.774 204.966 204.966 0 0 0-3.78 10.43c-.16.48-.652.765-1.148.666A2.503 2.503 0 0 0 38 28.5c0 1.015.606 1.922 1.543 2.311a1 1 0 0 1 .58 1.191c-1.166 4.2-1.978 8-2.413 11.295a1 1 0 0 1-.438.702 23.973 23.973 0 0 1-11.261 3.918 1.046 1.046 0 0 1-.083.003zm7.679-28.007c-3.866 10.595-6.084 19.29-6.604 25.883a21.982 21.982 0 0 0 8.786-3.219c.431-3.073 1.169-6.546 2.197-10.343A4.486 4.486 0 0 1 36 28.5a4.505 4.505 0 0 1 4.495-4.5c1.001-2.985 2.147-6.135 3.41-9.38a22.156 22.156 0 0 0-5.362-7.127 265.622 265.622 0 0 0-1.732 4.142A4.472 4.472 0 0 1 39 15.5a4.505 4.505 0 0 1-5.393 4.412zM6.183 39.545a1 1 0 0 1-.774-.367A24.046 24.046 0 0 1 0 24 24.04 24.04 0 0 1 5.433 8.793C8.887 4.58 13.709 1.643 19.01.52a1 1 0 0 1 1.117 1.393 269.733 269.733 0 0 0-3.375 7.734 1 1 0 0 1-1.303.539A2.503 2.503 0 0 0 12 12.5c0 1.034.622 1.947 1.585 2.326a1 1 0 0 1 .566 1.29c-3.343 8.669-5.694 16.282-6.988 22.629a1 1 0 0 1-.98.8zm11.263-36.55C8.385 5.823 2 14.351 2 24c0 4.336 1.293 8.585 3.675 12.174 1.33-5.78 3.442-12.476 6.293-19.951A4.471 4.471 0 0 1 10 12.5a4.505 4.505 0 0 1 5.248-4.438c.718-1.7 1.453-3.396 2.198-5.068z"/>
        <path d="M15.591 46.414c-.123 0-.247-.023-.365-.07a24.092 24.092 0 0 1-9.817-7.166 1 1 0 0 1-.205-.833c1.315-6.455 3.698-14.176 7.081-22.948a1 1 0 0 1 1.3-.57A2.503 2.503 0 0 0 17 12.5a2.492 2.492 0 0 0-1.55-2.314 1 1 0 0 1-.543-1.31 271.705 271.705 0 0 1 3.4-7.792 1 1 0 0 1 .703-.564 24.16 24.16 0 0 1 10.805.19 1 1 0 0 1 .67 1.384C28.071 7.403 23.541 17.878 20.3 28.398a1 1 0 0 1-1.196.676A2.503 2.503 0 0 0 16 31.5c0 1.102.706 2.062 1.758 2.388a1 1 0 0 1 .674 1.196c-.965 3.9-1.585 7.404-1.845 10.416a1 1 0 0 1-.997.914zm-8.33-8.14a22.112 22.112 0 0 0 7.472 5.685c.295-2.565.818-5.426 1.56-8.535A4.477 4.477 0 0 1 14 31.5a4.505 4.505 0 0 1 4.64-4.498c3.033-9.65 7.063-19.142 9.515-24.609a22.242 22.242 0 0 0-8.24-.013 270 270 0 0 0-2.817 6.444A4.484 4.484 0 0 1 19 12.5a4.505 4.505 0 0 1-5.169 4.45c-3.093 8.112-5.301 15.28-6.57 21.325z"/>
        <path d="M14.5 17a4.478 4.478 0 0 1-1.649-.313A4.476 4.476 0 0 1 10 12.5a4.505 4.505 0 0 1 6.21-4.163A4.486 4.486 0 0 1 19 12.5c0 2.481-2.019 4.5-4.5 4.5zm0-7a2.503 2.503 0 0 0-2.5 2.5c0 1.034.622 1.947 1.585 2.326A2.503 2.503 0 0 0 17 12.5a2.492 2.492 0 0 0-2.5-2.5zM24 48a23.89 23.89 0 0 1-8.774-1.655 1 1 0 0 1-.631-1.017c.269-3.116.907-6.724 1.897-10.725a1 1 0 0 1 1.266-.715A2.503 2.503 0 0 0 21 31.5c0-1.152-.779-2.15-1.895-2.426a1 1 0 0 1-.715-1.265c3.274-10.626 7.843-21.19 10.274-26.541A1 1 0 0 1 29.815.71a23.772 23.772 0 0 1 8.955 4.372 1 1 0 0 1 .301 1.185 266.6 266.6 0 0 0-2.622 6.258 1 1 0 0 1-1.219.582A2.503 2.503 0 0 0 32 15.5c0 .96.56 1.847 1.429 2.26a1 1 0 0 1 .509 1.25c-4.31 11.651-6.668 21.058-7.011 27.958a1 1 0 0 1-.916.947A24.4 24.4 0 0 1 24 48zm-7.34-3.255a21.911 21.911 0 0 0 8.323 1.233c.49-6.85 2.773-15.888 6.797-26.895A4.526 4.526 0 0 1 30 15.5a4.505 4.505 0 0 1 4.903-4.482 268.44 268.44 0 0 1 2.021-4.823 21.746 21.746 0 0 0-6.79-3.327c-2.406 5.345-6.492 14.91-9.556 24.639A4.491 4.491 0 0 1 23 31.5a4.505 4.505 0 0 1-4.787 4.49c-.765 3.222-1.286 6.16-1.554 8.755z"/>
        <path d="M18.5 36c-.454 0-.903-.068-1.334-.201A4.479 4.479 0 0 1 14 31.5a4.505 4.505 0 0 1 5.586-4.367A4.49 4.49 0 0 1 23 31.5c0 2.481-2.019 4.5-4.5 4.5zm0-7a2.503 2.503 0 0 0-2.5 2.5 2.488 2.488 0 0 0 2.5 2.5c1.378 0 2.5-1.121 2.5-2.5a2.494 2.494 0 0 0-2.5-2.5zM34.5 20a4.462 4.462 0 0 1-1.929-.434A4.523 4.523 0 0 1 30 15.5a4.505 4.505 0 0 1 5.813-4.305A4.475 4.475 0 0 1 39 15.5c0 2.481-2.019 4.5-4.5 4.5zm0-7a2.503 2.503 0 0 0-2.5 2.5c0 .96.561 1.847 1.43 2.26A2.503 2.503 0 0 0 37 15.5a2.486 2.486 0 0 0-1.77-2.392A2.506 2.506 0 0 0 34.5 13zM40.5 33a4.474 4.474 0 0 1-1.723-.343A4.488 4.488 0 0 1 36 28.5a4.505 4.505 0 0 1 5.391-4.411A4.51 4.51 0 0 1 45 28.5c0 2.481-2.019 4.5-4.5 4.5zm0-7a2.503 2.503 0 0 0-2.5 2.5 2.494 2.494 0 0 0 2.5 2.5c1.379 0 2.5-1.122 2.5-2.5a2.505 2.505 0 0 0-2.5-2.5z"/>
    </g>
</svg>
