<svg xmlns="http://www.w3.org/2000/svg" width="48" height="56" viewBox="0 0 48 56">
    <g fill="#394553" fill-rule="evenodd">
        <path d="M27.819 55.591c.64-.093 1.282-.202 1.91-.335l-.38-1.822c-.586.125-1.185.23-1.783.313l.253 1.844zM31.13 52.988l.508 1.79A27.635 27.635 0 0 0 47.872 42.09l-1.59-.944a25.796 25.796 0 0 1-15.151 11.842zM20.434 2.108L20.181.263c-.64.094-1.282.202-1.91.336l.38 1.821a25.648 25.648 0 0 1 1.783-.312zM16.87 2.866l-.508-1.79A27.635 27.635 0 0 0 .128 13.764l1.59.944A25.796 25.796 0 0 1 16.869 2.866z"/>
        <path fill-rule="nonzero" d="M20.308 33.513c0 2.056 1.653 3.723 3.692 3.723 2.04 0 3.692-1.667 3.692-3.723 0-1.64-1.054-4.554-2.769-5.364v-6.014a16.515 16.515 0 0 1 4.807-11.702l-1.306-1.317a18.371 18.371 0 0 0-5.347 13.02v6.013c-1.715.81-2.77 3.723-2.77 5.364zM24 29.789c.69 0 1.846 2.332 1.846 3.724A1.854 1.854 0 0 1 24 35.375a1.854 1.854 0 0 1-1.846-1.862c0-1.392 1.156-3.724 1.846-3.724z"/>
        <path d="M8.308 38.167h1.846v1.862H8.308zM14.769 44.684h1.846v1.862h-1.846zM20.308 41.891h1.846v1.862h-1.846zM31.385 40.029h1.846v1.862h-1.846zM38.769 39.098h1.846v1.862h-1.846zM27.692 45.615h1.846v1.862h-1.846z"/>
        <path fill-rule="nonzero" d="M24 52.13c13.255 0 24-10.835 24-24.203C48 14.56 37.255 3.724 24 3.724S0 14.56 0 27.927c.015 13.361 10.751 24.189 24 24.204zm0-1.86c-9.495-.014-17.93-6.118-20.98-15.185.006.007.013.01.02.017a3.516 3.516 0 0 0 4.997 0 1.68 1.68 0 0 1 2.387 0l.462.465a3.515 3.515 0 0 0 4.997 0l.839-.845c.583 3.596 3.665 6.236 7.278 6.236 3.613 0 6.695-2.64 7.278-6.236l.839.845a3.515 3.515 0 0 0 4.997 0l.462-.465a1.68 1.68 0 0 1 2.387 0 3.517 3.517 0 0 0 4.997 0c.007-.007.014-.01.02-.017C41.93 44.152 33.496 50.256 24 50.269zm-7.224-18.236l-2.198 2.217a1.68 1.68 0 0 1-2.387 0l-.461-.466a3.516 3.516 0 0 0-4.998 0 1.72 1.72 0 0 1-2.387 0 3.518 3.518 0 0 0-1.965-1 22.51 22.51 0 0 1-.45-2.996h15.672a7.38 7.38 0 0 0-.826 2.245zm14.448 0a7.38 7.38 0 0 0-.83-2.245H46.07a22.424 22.424 0 0 1-.452 3 3.517 3.517 0 0 0-1.964.996 1.72 1.72 0 0 1-2.387 0 3.516 3.516 0 0 0-4.998 0l-.461.466a1.68 1.68 0 0 1-2.387 0l-2.198-2.217zM24 5.585c12.23.015 22.14 10.01 22.154 22.342h-17.63a.923.923 0 0 0-.855.58.937.937 0 0 0 .208 1.016 5.62 5.62 0 0 1 1.256 6.102 5.539 5.539 0 0 1-5.128 3.477 5.539 5.539 0 0 1-5.129-3.477 5.62 5.62 0 0 1 1.256-6.102.937.937 0 0 0 .209-1.017.923.923 0 0 0-.855-.579H1.846C1.86 15.594 11.771 5.6 24 5.585z"/>
    </g>
</svg>
