<svg xmlns="http://www.w3.org/2000/svg" width="48" height="48" viewBox="0 0 48 48">
    <g fill="#394553" fill-rule="evenodd">
        <path d="M21.49 36.167a11.391 11.391 0 0 1-3.487-.544l.48-1.496a9.833 9.833 0 0 0 11.972-5.254 9.852 9.852 0 0 0-3.811-12.516l.826-1.339a11.427 11.427 0 0 1 5.001 12.84 11.412 11.412 0 0 1-10.981 8.31v-.001z"/>
        <path d="M22.671 25.927a10.173 10.173 0 0 1-9.968-7.968l1.534-.349a8.647 8.647 0 1 0 16.093 2.106l1.392.733a10.206 10.206 0 0 1-9.051 5.478z"/>
        <path d="M10.058 47.193a9.442 9.442 0 0 1-9.274-7.86 9.45 9.45 0 0 1 6.15-10.493v-3.7a11.734 11.734 0 0 1 5.72-10.127l.811 1.348a10.174 10.174 0 0 0-4.957 8.778v4.273a.788.788 0 0 1-.573.758 7.879 7.879 0 1 0-1.474 14.572 7.862 7.862 0 0 0 8.783-1.05 7.882 7.882 0 0 0 2.26-8.56l1.484-.522a9.456 9.456 0 0 1-1.21 8.607 9.435 9.435 0 0 1-7.72 3.976z"/>
        <path d="M17.496 35.111l-1.87-5.792a.788.788 0 0 1-.037-.241v-.22c0-.3.17-.576.44-.708a9.068 9.068 0 0 0 3.75-3.423l1.343.821a10.628 10.628 0 0 1-3.856 3.728l1.726 5.35-1.496.485z"/>
        <path fill-rule="nonzero" d="M44.987 19.113a.786.786 0 0 1-.556-.231L34.415 8.856 33.303 9.97a2.414 2.414 0 0 1-3.338 0l-4.452-4.456a2.364 2.364 0 0 1 0-3.342l.557-.557a5.51 5.51 0 0 1 7.79 0L47.77 15.54a.788.788 0 0 1 0 1.113l-2.227 2.229a.786.786 0 0 1-.556.23zM34.415 6.955c.209-.001.41.082.557.23l10.015 10.026 1.113-1.115L32.746 2.73a3.936 3.936 0 0 0-5.564 0l-.556.556a.788.788 0 0 0 0 1.115l4.451 4.456a.786.786 0 0 0 1.113 0l1.669-1.67a.786.786 0 0 1 .556-.231z"/>
        <path d="M26.07 2.728l1.112-1.114 6.677 6.684-1.113 1.114zM40.537 13.869l2.225-2.228 1.113 1.114-2.225 2.228zM23.148 6.488l1.113-1.114 1.112 1.114-1.112 1.114zM20.923 8.716l1.113-1.114 1.113 1.114-1.113 1.114zM18.697 10.944L19.81 9.83l1.113 1.114-1.113 1.114zM16.472 13.172l1.113-1.114 1.112 1.114-1.112 1.114zM14.246 15.4l1.113-1.113L16.47 15.4l-1.112 1.113zM25.374 8.716l1.113-1.114L27.6 8.716 26.487 9.83zM23.148 10.944L24.26 9.83l1.113 1.114-1.113 1.114zM20.923 13.172l1.113-1.114 1.113 1.114-1.113 1.114zM18.697 15.4l1.112-1.114 1.113 1.114-1.113 1.114zM16.472 17.628l1.113-1.114 1.112 1.114-1.112 1.114zM27.6 10.944l1.112-1.114 1.113 1.114-1.113 1.114zM25.374 13.172l1.113-1.114 1.113 1.114-1.113 1.114zM23.148 15.4l1.113-1.114 1.113 1.114-1.113 1.114zM20.923 17.629l1.113-1.114 1.112 1.114-1.112 1.114zM18.697 19.856l1.113-1.113 1.113 1.113-1.113 1.114zM21.097 43.256h-3.934v-1.575h3.934a.787.787 0 0 0 .787-.788v-5.514h1.574v5.514a2.362 2.362 0 0 1-2.36 2.363z"/>
        <path d="M28.966 47.195h-1.574a4.653 4.653 0 0 0-2.336-4.03l-2.775-1.587.78-1.368 2.776 1.588a6.23 6.23 0 0 1 3.129 5.397z"/>
    </g>
</svg>
