<svg xmlns="http://www.w3.org/2000/svg" width="36" height="36" viewBox="0 0 36 36">
    <g fill="#394553" fill-rule="evenodd">
        <path fill-rule="nonzero" d="M18 0C8.075 0 0 8.075 0 18s8.075 18 18 18 18-8.075 18-18S27.925 0 18 0zm0 34.054c-4.41 0-8.41-1.788-11.314-4.676a16.14 16.14 0 0 1-2.91-3.943A15.953 15.953 0 0 1 1.945 18C1.946 9.148 9.148 1.946 18 1.946c4.198 0 8.025 1.62 10.889 4.27a16.139 16.139 0 0 1 3.595 4.863 15.958 15.958 0 0 1 1.57 6.92c0 8.853-7.202 16.055-16.054 16.055z"/>
        <circle cx="12.122" cy="13.986" r="1.946"/>
        <circle cx="24.162" cy="13.986" r="1.946"/>
        <path d="M17.965 27.972c3.765 0 7.373-1.925 9.439-5.121l-1.635-1.057c-1.897 2.936-5.366 4.574-8.84 4.173-2.708-.312-5.212-1.872-6.699-4.173l-1.634 1.057c1.799 2.783 4.83 4.67 8.11 5.05.42.048.84.071 1.26.071z"/>
    </g>
</svg>
