<svg xmlns="http://www.w3.org/2000/svg" width="50" height="50" viewBox="0 0 50 50">
    <g fill="none" fill-rule="evenodd" stroke="#2E3192" stroke-width="2" transform="translate(1 1)">
        <path d="M20.129 3.871L24 0C13.744 0 4.99 6.433 1.555 15.484M44.129 20.129L48 24c0-10.256-6.434-19.01-15.486-22.445M27.871 44.129L24 48c10.256 0 19.01-6.433 22.445-15.484M3.871 27.871L0 24c0 10.255 6.432 19.008 15.482 22.444"/>
        <path stroke-linejoin="round" d="M28.645 26.323c0 2.322-1.548 4.645-4.645 4.645-3.097 0-4.645-2.323-4.645-4.645 0-3.871 4.645-8.517 4.645-10.84 0 2.323 4.645 6.969 4.645 10.84z"/>
        <circle cx="24" cy="24" r="14.71"/>
    </g>
</svg>
