<svg xmlns="http://www.w3.org/2000/svg" width="44" height="49" viewBox="0 0 44 49">
    <g fill="none" fill-rule="evenodd" stroke="#2E3192" stroke-linejoin="round" stroke-width="2" transform="translate(1 1)">
        <path d="M33.524 41.143V48M22.857 22.857V7.62H7.62V5.333L19.809 0h15.239v7.619h4.571l1.524 3.048h-7.62v12.19M22.857 48v-6.857M24.381 22.857H7.619v2.286l10.667 4.571h3.047V32l-1.523 1.524v7.619h4.571zM32 22.857h9.143l-1.524 3.048h-4.571v15.238H32zM28.19 8.381v1.524M28.19 11.429v1.523M28.19 14.476V16M28.19 17.524v1.524M28.19 20.571v1.524M28.19 23.619v1.524M28.19 26.667v1.523M28.19 29.714v1.524M28.19 32.762v1.524M28.19 35.81v1.523M28.19 38.857v1.524M28.19 41.905v1.524M28.19 44.952v1.524"/>
        <circle cx="7.619" cy="15.238" r="7.619"/>
        <circle cx="7.619" cy="15.238" r="3.81"/>
    </g>
</svg>
