<svg xmlns="http://www.w3.org/2000/svg" width="54" height="48" viewBox="0 0 54 48">
    <g fill="#2E3192" fill-rule="evenodd">
        <path fill-rule="nonzero" d="M34.436 21.137a4.114 4.114 0 0 0 3.19-4.001 4.121 4.121 0 0 0-4.117-4.118 4.122 4.122 0 0 0-4.116 4.118c0 2.038 1.493 3.722 3.44 4.047.01.174.029.347.029.525 0 5.27-4.289 9.558-9.559 9.558s-9.557-4.29-9.557-9.558c0-.178.018-.351.028-.527 1.947-.324 3.438-2.01 3.438-4.045a4.122 4.122 0 0 0-4.116-4.118 4.124 4.124 0 0 0-4.118 4.118c0 1.951 1.368 3.58 3.192 4.002-.01.19-.03.38-.03.571 0 6.156 5.008 11.163 11.163 11.163 6.157 0 11.164-5.007 11.164-11.163-.003-.195-.023-.382-.031-.572zm-23.858-4.001a2.517 2.517 0 0 1 2.513-2.514 2.517 2.517 0 0 1 2.512 2.514 2.515 2.515 0 0 1-2.512 2.51 2.517 2.517 0 0 1-2.513-2.51zm20.418 0a2.517 2.517 0 0 1 2.513-2.514 2.517 2.517 0 0 1 2.513 2.514 2.515 2.515 0 0 1-2.513 2.51 2.516 2.516 0 0 1-2.513-2.51z"/>
        <path fill-rule="nonzero" d="M45.352 26.12l-.927-18.43-4.31-3.57.798-1.432c.3-.545.319-1.119.05-1.576-.269-.457-.782-.72-1.403-.72H7.04c-.625 0-1.136.263-1.406.724-.268.455-.246 1.03.056 1.575l.798 1.429-4.315 3.572L.831 37.15a3.47 3.47 0 0 0 .958 2.582 3.47 3.47 0 0 0 2.536 1.076h28.497c1.62 3.981 5.527 6.798 10.083 6.798 6.004 0 10.888-4.884 10.888-10.888 0-5.16-3.615-9.484-8.441-10.598zM8.544 4.507l-1.389-2.51 32.3.014-1.393 2.496 3.352 2.776H5.187l3.357-2.776zM4.325 39.204a1.876 1.876 0 0 1-1.89-1.98l1.29-28.337h39.154l.854 16.988a10.532 10.532 0 0 0-.828-.041c-6.003 0-10.887 4.883-10.887 10.886 0 .856.109 1.687.298 2.484H4.325zm38.58 6.798c-5.117 0-9.282-4.166-9.282-9.282s4.166-9.282 9.282-9.282c5.12 0 9.283 4.166 9.283 9.282s-4.163 9.282-9.283 9.282z"/>
        <path d="M41.873 40.47l-4.503-5.043-1.198 1.07 5.864 6.567 7.338-10.666-1.323-.91z"/>
    </g>
</svg>
