<svg xmlns="http://www.w3.org/2000/svg" width="46" height="48" viewBox="0 0 46 48">
    <g fill="#2E3192" fill-rule="evenodd">
        <path d="M6.968 26.516a.774.774 0 0 0-.774.774V38.13a.774.774 0 0 0 1.548 0V27.29a.774.774 0 0 0-.774-.774z"/>
        <path fill-rule="nonzero" d="M45.105 41.843L33.29 22.395v-5.943a2.323 2.323 0 1 0 0-4.646H20.903a2.323 2.323 0 0 0 0 4.646h.252v5.943l-3.433 5.652a.774.774 0 0 0 1.323.804l3.546-5.837a.774.774 0 0 0 .112-.402v-6.16h9.039v6.16c0 .142.039.28.112.402L43.795 42.67c.406.59.443 1.359.095 1.985a2.427 2.427 0 0 1-2.168 1.216h-24.69a.774.774 0 0 0 0 1.548h24.69a3.972 3.972 0 0 0 3.533-2.03 3.423 3.423 0 0 0-.15-3.546zM21.93 14.903h-1.026a.774.774 0 0 1 0-1.548H33.29a.774.774 0 0 1 0 1.548H21.93zM24.774 8.71a2.323 2.323 0 1 0 4.645 0 2.323 2.323 0 0 0-4.645 0zm2.323-.775a.774.774 0 1 1 0 1.549.774.774 0 0 1 0-1.549z"/>
        <path fill-rule="nonzero" d="M30.194 24.968a2.323 2.323 0 1 0-4.646 0 2.323 2.323 0 0 0 4.646 0zm-3.097 0a.774.774 0 1 1 1.548 0 .774.774 0 0 1-1.548 0zM23.226 29.613a3.097 3.097 0 1 0 0 6.193 3.097 3.097 0 0 0 0-6.193zm0 4.645a1.548 1.548 0 1 1 0-3.097 1.548 1.548 0 0 1 0 3.097zM30.194 6a1.935 1.935 0 1 0 0-3.871 1.935 1.935 0 0 0 0 3.871zm0-2.323a.387.387 0 1 1 0 .775.387.387 0 0 1 0-.775zM24.774 4.452a1.935 1.935 0 1 0 0-3.871 1.935 1.935 0 0 0 0 3.87zm0-2.323a.387.387 0 1 1 0 .774.387.387 0 0 1 0-.774zM17.806 19.123a2.694 2.694 0 0 0-2.71-2.673H3.485a2.673 2.673 0 1 0 0 5.342h.193v20.583c0 2.781 2.517 5.044 5.613 5.044 3.097 0 5.613-2.263 5.613-5.044v-20.58h.194a2.694 2.694 0 0 0 2.71-2.672zm-2.71 1.123h-.967a.774.774 0 0 0-.774.774v21.355c0 1.927-1.823 3.496-4.065 3.496-2.241 0-4.064-1.569-4.064-3.496v-20.58h2.129a.774.774 0 0 0 0-1.548H3.484a1.124 1.124 0 1 1 0-2.245h11.613a1.124 1.124 0 1 1 0 2.245v-.001z"/>
        <path d="M37.548 41.226a.774.774 0 0 0 .669-1.161l-5.42-9.29a.774.774 0 0 0-1.338.78l5.42 9.29c.14.237.394.382.67.38z"/>
    </g>
</svg>
