<svg xmlns="http://www.w3.org/2000/svg" width="49" height="48" viewBox="0 0 49 48">
    <g fill="#2F2533" fill-rule="evenodd">
        <path fill-rule="nonzero" d="M29.47 3.636a.873.873 0 1 0 0-1.745.873.873 0 0 0 0 1.745zm0-1.309a.436.436 0 1 1 0 .873.436.436 0 0 1 0-.873zM46.052 19.927a.582.582 0 1 0 0 1.164.582.582 0 0 0 0-1.164zm0 .873a.29.29 0 1 1 0-.582.29.29 0 0 1 0 .582zM42.561 8.873a.582.582 0 1 0 0 1.163.582.582 0 0 0 0-1.163zm0 .872a.29.29 0 1 1 0-.581.29.29 0 0 1 0 .581zM45.18.727a.582.582 0 1 0 0 1.164.582.582 0 0 0 0-1.164zm0 .873a.29.29 0 1 1 0-.582.29.29 0 0 1 0 .582zM7.361 9.164a.582.582 0 1 0-1.163 0 .582.582 0 0 0 1.163 0zm-.872 0a.29.29 0 1 1 .581 0 .29.29 0 0 1-.581 0z"/>
        <path d="M3.167 19.93l.433-.568-.273-.155-.278.637H3.04l-.282-.633-.278.16.428.555v.01l-.67-.087v.31l.674-.087v.009l-.432.555.26.164.295-.642h.01l.273.637.286-.163-.437-.547v-.009l.688.082v-.31l-.688.091zM4.387 1.038l-.249.32.15.094.17-.37h.005l.158.367.165-.094-.252-.315v-.005l.396.047V.904l-.396.052V.951l.25-.328-.158-.089-.16.367h-.005L4.298.537l-.16.092.247.32v.005l-.386-.05v.178l.388-.05zM47.798 12.862v-.303l-.674.089v-.01l.424-.557-.268-.152-.272.625h-.01l-.276-.62-.273.156.42.544v.01l-.656-.085v.303l.66-.085v.01l-.424.544.255.16.29-.629h.01l.267.625.281-.16-.428-.536v-.01zM20 .898l.365-.482-.23-.13-.236.538h-.008L19.653.29l-.235.135.362.47v.008l-.566-.073v.261l.57-.073v.008l-.366.47.22.138.25-.543h.007l.232.54.242-.14L20 1.03V1.02l.582.07V.828l-.582.076zM34.372 45.09h-2.417a.584.584 0 0 0 0 1.165h2.417a.584.584 0 0 0 0-1.164zM16.917 45.09h-2.416a.584.584 0 0 0 0 1.165h2.416a.584.584 0 0 0 0-1.164zM30.255 45.09H18.618a.582.582 0 0 0 0 1.165h4.637v.581h-2.31a.582.582 0 0 0 0 1.164h7.273a.582.582 0 0 0 0-1.164h-2.6v-.581h4.637a.582.582 0 0 0 0-1.164zM15.21 13.108l14.36-2.353a.582.582 0 1 0-.188-1.148l-14.36 2.353a.582.582 0 0 0 .187 1.148zM34.548 14.093l-.493 3.391c-.072.399.102.8.442 1.021l.662.505.048.033c.358.21.802.21 1.16 0l.71-.538a.99.99 0 0 0 .423-1.039l-.586-3.348c-.37.09-.75.135-1.132.137l-.026-.002.587 3.349-.556.424-.571-.435.485-3.34a4.928 4.928 0 0 1-1.153-.158zM28.51 19.03v.752a.582.582 0 0 0 1.163 0v-.752a5.558 5.558 0 0 1 3.742-5.38 4.977 4.977 0 0 1-1.098-.817 6.75 6.75 0 0 0-3.808 6.197zM38.147 13.65a5.559 5.559 0 0 1 3.744 5.38v.752a.582.582 0 0 0 1.164 0v-.752a6.751 6.751 0 0 0-3.81-6.197 4.97 4.97 0 0 1-1.098.818z"/>
        <path fill-rule="nonzero" d="M35.782 13.09a3.782 3.782 0 1 0 0-7.563 3.782 3.782 0 0 0 0 7.564zm0-6.4a2.618 2.618 0 1 1 0 5.237 2.618 2.618 0 0 1 0-5.236zM26.548 34.96l4.626 2.47c.141.061.293.094.447.097.464 0 .74-.37.654-.972l-1.24-5.06-10.843-14.359a1.397 1.397 0 0 0-1.973-.26l-2.243 1.733a1.432 1.432 0 0 0-.272 1.992L26.548 34.96zm4.39 1.025l-2.924-1.561 2.166-1.531.758 3.092zM16.687 19.53l2.243-1.733a.238.238 0 0 1 .148-.052c.073 0 .142.034.185.093l10.51 13.917-2.73 1.93-10.41-13.786a.27.27 0 0 1 .054-.37z"/>
        <path d="M11.857 36.493l-.493 3.391c-.071.399.103.8.442 1.021l.662.505.048.033c.358.21.802.21 1.16 0l.71-.538a.99.99 0 0 0 .424-1.039l-.587-3.348c-.37.09-.75.135-1.132.137l-.026-.002.587 3.349-.556.424-.571-.435.485-3.34a4.928 4.928 0 0 1-1.153-.158z"/>
        <path fill-rule="nonzero" d="M13.09 35.49a3.782 3.782 0 1 0 .001-7.563 3.782 3.782 0 0 0 0 7.564zm0-6.4a2.618 2.618 0 1 1 .001 5.237 2.618 2.618 0 0 1 0-5.236z"/>
        <path d="M12.2 26.848c.294-.055.592-.083.89-.084.094 0 .186.008.278.014L10.62 10.363l20.816-3.412a4.974 4.974 0 0 1 1.094-1.358L10.425 9.216a1.153 1.153 0 0 0-.955 1.326l2.73 16.306zM38.447 39.075a1.153 1.153 0 0 0 .955-1.327l-2.715-16.22h-1.18l2.746 16.4-16.76 2.75c.022.248.034.498.034.752v.418l16.92-2.773z"/>
        <path d="M15.495 15.39a.597.597 0 0 0 .095-.008l14.356-2.352c.147-.134.3-.26.456-.381a.576.576 0 0 0-.64-.769l-14.36 2.354a.582.582 0 0 0 .093 1.156zM27.398 18.118c.043-.41.116-.816.22-1.215l-5.468.896.793 1.05 4.455-.73zM28.764 14.38l-8.415 1.379c.3.17.563.4.771.676l.253.335 6.667-1.093c.2-.454.443-.889.724-1.298zM15.49 17.514l1.576-1.217-1.283.21a.58.58 0 0 0-.294 1.007zM27.475 20.441a1.74 1.74 0 0 1-.13-.66v-.497l-3.625.594.792 1.049 2.963-.486zM17.018 24.484a.6.6 0 0 0 .095-.008l.053-.009-.648-.858a.578.578 0 0 0 .5.875zM31.473 22.122a.582.582 0 0 0-.189-1.148l-5.994.982.792 1.05 5.39-.884zM31.853 24.395a.582.582 0 0 0-.188-1.148l-4.806.788.792 1.049 4.202-.689zM17.398 26.756a.597.597 0 0 0 .095-.007l1.242-.204-.792-1.05-.638.105a.582.582 0 0 0 .093 1.156zM32.234 26.669a.582.582 0 0 0-.189-1.149l-3.616.593.792 1.05 3.013-.494zM17.779 29.03a.6.6 0 0 0 .095-.008l2.431-.398-.792-1.05-1.828.3a.582.582 0 0 0 .094 1.156zM32.614 28.942a.582.582 0 0 0-.188-1.148l-2.428.398.793 1.049 1.823-.299zM18.16 31.303a.595.595 0 0 0 .094-.008l3.62-.593-.792-1.05-3.016.495a.579.579 0 0 0-.249.107c.102.335.169.68.198 1.028.047.013.096.02.144.021zM32.807 30.067l-1.239.203.54.716.088.36.799-.13a.582.582 0 1 0-.188-1.149zM18.54 33.577a.598.598 0 0 0 .095-.008l4.81-.788-.793-1.05-4.205.69a.582.582 0 0 0 .093 1.156zM25.013 34.86l-.792-1.05-5.394.884a.581.581 0 0 0-.486.563c.243.18.476.374.697.581l5.975-.979zM33.187 32.34l-.72.119.277 1.133.632-.103a.582.582 0 0 0-.189-1.148zM27.5 36.788l-1.69-.903-5.873.963c.253.338.477.696.672 1.07l6.891-1.13zM33.568 34.614l-.552.09.276 1.134.464-.076a.582.582 0 1 0-.188-1.148z"/>
        <circle cx=".582" cy="43.345" r="1"/>
        <path d="M3.2 42.764h-.873a.582.582 0 1 0 0 1.163H3.2a.582.582 0 1 0 0-1.163zM46.545 42.764h-.872a.582.582 0 1 0 0 1.163h.872a.582.582 0 1 0 0-1.163z"/>
        <circle cx="48.291" cy="43.345" r="1"/>
        <path d="M43.846 42.764H20.364V41.43a6.751 6.751 0 0 0-3.81-6.197 4.97 4.97 0 0 1-1.098.818 5.559 5.559 0 0 1 3.744 5.38v1.333H6.982V41.43a5.558 5.558 0 0 1 3.743-5.38 4.977 4.977 0 0 1-1.098-.817 6.75 6.75 0 0 0-3.809 6.197v1.334h-.791a.587.587 0 1 0 0 1.163h38.82a.587.587 0 1 0 0-1.163z"/>
    </g>
</svg>
