<svg xmlns="http://www.w3.org/2000/svg" width="51" height="48" viewBox="0 0 51 48">
    <g fill="none" fill-rule="evenodd">
        <g fill="#2F2533">
            <path d="M25.17 20.246c-.124 0-.185 0-.308-.061-4.431-2.647-6.77-5.785-6.77-9.108 0-2.215 1.293-3.754 3.016-5.785 1.046-1.23 2.277-2.707 3.569-4.677.185-.307.554-.369.861-.184.308.184.37.554.185.8-1.354 2.03-2.646 3.569-3.63 4.8-1.662 1.969-2.77 3.261-2.77 4.984 0 2.893 2.154 5.662 6.154 8.062.308.185.37.554.246.861a.646.646 0 0 1-.554.308z"/>
            <path d="M25.23 20.246a.734.734 0 0 1-.553-.308c-.185-.307-.062-.676.246-.861 4.062-2.4 6.154-5.17 6.154-8.062 0-1.784-1.108-3.077-2.77-4.984-1.045-1.231-2.338-2.77-3.63-4.8-.185-.246-.062-.616.185-.8.307-.185.676-.123.861.184 1.292 1.97 2.523 3.385 3.57 4.677 1.784 2.093 3.015 3.57 3.015 5.785 0 3.323-2.339 6.523-6.77 9.108-.061.061-.184.061-.307.061z"/>
        </g>
        <g fill="#2F2533">
            <path d="M25.23 13.908a.56.56 0 0 1-.492-.246c-.184-.308-.123-.677.124-.862.8-.554 1.353-1.108 1.784-1.785.185-.307.554-.369.862-.184.307.184.369.554.184.861a7.503 7.503 0 0 1-2.092 2.093c-.123.123-.246.123-.37.123z"/>
            <path d="M25.23 13.908c-.122 0-.245-.062-.368-.123a7.503 7.503 0 0 1-2.093-2.093c-.184-.307-.061-.677.185-.861.246-.185.677-.062.861.184.37.616.985 1.231 1.785 1.785.308.185.37.554.123.862-.061.184-.308.246-.492.246z"/>
        </g>
        <path fill="#000" d="M25.23 23.63c-.368 0-.615-.245-.615-.615V6.77c0-.369.247-.615.616-.615s.615.246.615.615v16.185c0 .37-.246.677-.615.677z"/>
        <g fill="#000">
            <path d="M31.692 24.923h-.123c-.307-.061-.554-.43-.492-.738 1.108-5.047 3.385-8.247 6.585-9.293 2.092-.677 3.938.062 6.461 1.108 1.539.615 3.262 1.354 5.539 1.97.307.06.492.43.43.738-.061.307-.43.492-.738.43-2.339-.615-4.185-1.415-5.662-1.969-2.338-.984-3.938-1.6-5.6-1.046-2.769.923-4.738 3.815-5.784 8.37-.062.245-.37.43-.616.43z"/>
            <path d="M39.815 28.738c-2.646 0-5.538-1.353-8.553-4-.247-.246-.308-.615-.062-.861s.615-.308.862-.062c3.507 3.077 6.83 4.247 9.6 3.385 1.661-.554 2.584-1.97 3.938-4.123.862-1.354 1.908-3.077 3.385-4.923.184-.246.615-.308.861-.123.246.184.308.615.123.861-1.477 1.846-2.461 3.446-3.323 4.8-1.415 2.339-2.461 4-4.554 4.677-.738.308-1.477.37-2.277.37z"/>
        </g>
        <g fill="#2F2533">
            <path d="M40.185 24.246h-.123a7.733 7.733 0 0 1-2.647-1.354c-.246-.184-.307-.615-.123-.861.185-.246.616-.308.862-.123.738.554 1.477.923 2.215 1.107.308.062.554.431.431.739-.123.308-.37.492-.615.492z"/>
            <path d="M37.723 23.015h-.185c-.307-.123-.492-.43-.43-.738.307-1.046.8-1.97 1.354-2.646.246-.246.615-.308.861-.062s.308.616.062.862c-.493.554-.862 1.292-1.108 2.215-.062.185-.308.37-.554.37z"/>
        </g>
        <path fill="#2F2533" d="M28.492 25.97c-.246 0-.492-.185-.615-.432-.123-.307.061-.676.37-.8l15.384-4.984c.307-.123.677.061.8.37.123.307-.062.676-.37.8l-15.384 4.984c-.062.061-.123.061-.185.061z"/>
        <g>
            <g fill="#000">
                <path d="M10.646 28.8c-.8 0-1.538-.123-2.277-.37-2.092-.676-3.138-2.338-4.554-4.676-.861-1.416-1.846-3.016-3.323-4.8-.184-.246-.184-.677.123-.862.247-.246.616-.184.862.062a39.934 39.934 0 0 1 3.385 4.923C6.215 25.23 7.077 26.707 8.8 27.2c2.77.923 6.092-.246 9.6-3.385.246-.246.615-.184.862.062.246.246.184.615-.062.861-3.015 2.708-5.908 4.062-8.554 4.062z"/>
                <path d="M18.77 24.923c-.308 0-.555-.185-.616-.492-1.046-4.554-3.016-7.446-5.785-8.37-1.661-.553-3.261.062-5.6 1.047-1.477.615-3.323 1.354-5.661 1.969-.308.061-.677-.123-.739-.43-.061-.309.123-.678.431-.74 2.277-.615 4-1.353 5.538-1.969 2.524-1.046 4.37-1.784 6.462-1.107 3.2 1.046 5.477 4.246 6.585 9.292.061.308-.123.677-.493.739 0 .061-.061.061-.123.061z"/>
            </g>
            <g fill="#2F2533">
                <path d="M12.738 22.954c-.246 0-.492-.185-.615-.43a6.22 6.22 0 0 0-1.108-2.216c-.246-.246-.184-.677.062-.862.246-.246.677-.184.861.062.554.677 1.047 1.6 1.354 2.646a.546.546 0 0 1-.43.738c0 .062-.062.062-.124.062z"/>
                <path d="M10.338 24.185c-.246 0-.553-.185-.615-.493-.061-.307.123-.677.43-.738.74-.185 1.478-.554 2.216-1.108.246-.184.677-.123.862.123.184.246.123.677-.123.862a7.733 7.733 0 0 1-2.646 1.354h-.124z"/>
            </g>
            <path fill="#2F2533" d="M21.97 25.97h-.185L6.4 20.984c-.308-.123-.492-.431-.37-.8.124-.308.432-.493.8-.37L22.216 24.8c.308.123.493.43.37.8a.677.677 0 0 1-.616.37z"/>
        </g>
        <g>
            <g fill="#000">
                <path d="M10.277 47.692c-.246 0-.492-.123-.554-.369-.123-.308.062-.677.37-.8 2.276-.861 4.184-1.354 5.784-1.723 2.461-.615 4.123-.985 5.17-2.462 1.722-2.338 1.6-5.846-.247-10.153-.123-.308 0-.677.308-.8.307-.123.677 0 .8.307 2.03 4.739 2.092 8.677.123 11.385-1.293 1.785-3.2 2.277-5.846 2.892-1.6.37-3.447.862-5.6 1.662-.185.061-.247.061-.308.061z"/>
                <path d="M10.277 47.692s-.062 0 0 0a.617.617 0 0 1-.615-.615c.123-2.339 0-4.185-.124-5.846-.184-2.708-.369-4.677.985-6.462 1.97-2.707 5.723-3.877 10.83-3.384.309.061.616.307.555.677-.062.369-.308.553-.677.553-4.677-.43-8.062.554-9.723 2.893-1.046 1.415-.923 3.138-.739 5.661.123 1.6.246 3.57.123 6.031-.061.246-.307.492-.615.492z"/>
            </g>
            <g fill="#2F2533">
                <path d="M14.83 38.092c-.245 0-.492-.123-.553-.369-.123-.308 0-.677.308-.8.861-.37 1.846-.492 2.953-.492.37 0 .616.307.616.615 0 .37-.308.616-.616.616-.923 0-1.784.123-2.461.369-.123.061-.185.061-.246.061z"/>
                <path d="M17.908 40.37c-.37 0-.616-.308-.616-.678.062-.738-.061-1.538-.369-2.461-.123-.308.062-.677.37-.8.307-.123.676.061.8.369.369 1.046.492 2.03.43 2.954 0 .37-.246.615-.615.615z"/>
            </g>
            <path fill="#2F2533" d="M13.662 42.954c-.124 0-.247-.062-.37-.123-.246-.185-.307-.616-.123-.862l9.539-13.107c.184-.247.615-.308.861-.124.246.185.308.616.123.862l-9.477 13.108a.78.78 0 0 1-.553.246z"/>
        </g>
        <g>
            <g fill="#000">
                <path d="M40.246 47.692a.617.617 0 0 1-.615-.615c-.123-2.4 0-4.43.123-6.03.184-2.524.308-4.247-.739-5.662-1.723-2.339-5.046-3.323-9.723-2.893a.67.67 0 0 1-.677-.554c-.061-.307.247-.615.554-.676 5.108-.493 8.862.676 10.831 3.384 1.292 1.785 1.17 3.754.985 6.462-.123 1.661-.247 3.507-.123 5.846 0 .43-.247.677-.616.738z"/>
                <path d="M40.246 47.692c-.061 0-.123 0-.246-.061-2.215-.862-4-1.293-5.6-1.662-2.646-.615-4.554-1.107-5.846-2.892-1.97-2.708-1.908-6.646.123-11.385.123-.307.492-.43.8-.307.308.123.43.492.308.8-1.847 4.307-1.97 7.815-.247 10.153 1.047 1.416 2.708 1.847 5.17 2.462 1.538.37 3.507.862 5.784 1.723.308.123.493.492.37.8-.124.185-.37.37-.616.37z"/>
            </g>
            <g fill="#2F2533">
                <path d="M32.492 40.37c-.307 0-.615-.247-.615-.555-.062-.923.061-1.907.43-2.953.124-.308.493-.493.8-.37.308.123.493.493.37.8-.308.923-.43 1.723-.37 2.462.062.308-.184.615-.615.615.062 0 .062 0 0 0z"/>
                <path d="M35.63 38.092c-.06 0-.184 0-.245-.061a5.932 5.932 0 0 0-2.462-.37.617.617 0 0 1-.615-.615c0-.37.246-.615.615-.615 1.108 0 2.092.123 2.954.492.308.123.492.492.37.8a.677.677 0 0 1-.616.37z"/>
            </g>
            <path fill="#2F2533" d="M36.8 42.954a.56.56 0 0 1-.492-.246L26.769 29.6c-.184-.246-.123-.677.123-.862.246-.184.677-.123.862.124l9.538 13.107c.185.246.123.677-.123.862-.123.061-.246.123-.369.123z"/>
        </g>
    </g>
</svg>
