<svg xmlns="http://www.w3.org/2000/svg" width="48" height="23" viewBox="0 0 48 23">
    <g fill="none" fill-rule="evenodd">
        <path fill="#394553" fill-rule="nonzero" d="M42.82.064a5.092 5.092 0 0 0-5.087 5.086c0 1.023.305 1.976.827 2.774l-5.496 5.496a5.055 5.055 0 0 0-2.774-.827c-1.06 0-2.045.327-2.86.884l-5.553-5.553c.522-.798.826-1.751.826-2.774A5.092 5.092 0 0 0 17.616.064 5.092 5.092 0 0 0 12.53 5.15c0 1.023.304 1.975.826 2.774L7.86 13.419a5.055 5.055 0 0 0-2.773-.826A5.092 5.092 0 0 0 0 17.68a5.092 5.092 0 0 0 5.087 5.087 5.092 5.092 0 0 0 5.086-5.087 5.055 5.055 0 0 0-.826-2.774l5.495-5.495a5.055 5.055 0 0 0 2.774.826 5.055 5.055 0 0 0 2.774-.826l5.583 5.583c-.487.78-.77 1.7-.77 2.686a5.092 5.092 0 0 0 5.087 5.087 5.092 5.092 0 0 0 5.087-5.087 5.055 5.055 0 0 0-.826-2.773l5.496-5.496c.798.521 1.75.826 2.773.826a5.092 5.092 0 0 0 5.087-5.087A5.092 5.092 0 0 0 42.82.064zm-37.733 20.6a2.987 2.987 0 0 1-2.985-2.984 2.988 2.988 0 0 1 2.985-2.984A2.988 2.988 0 0 1 8.07 17.68a2.987 2.987 0 0 1-2.984 2.984zm12.53-12.53a2.988 2.988 0 0 1-2.985-2.984 2.988 2.988 0 0 1 2.984-2.984 2.988 2.988 0 0 1 2.985 2.984 2.988 2.988 0 0 1-2.985 2.984zm12.673 12.53a2.988 2.988 0 0 1-2.984-2.984 2.988 2.988 0 0 1 2.984-2.984 2.988 2.988 0 0 1 2.984 2.984 2.988 2.988 0 0 1-2.984 2.984zm12.53-12.53a2.988 2.988 0 0 1-2.984-2.984 2.988 2.988 0 0 1 2.984-2.984 2.988 2.988 0 0 1 2.984 2.984 2.988 2.988 0 0 1-2.984 2.984z"/>
        <path fill="#000" d="M16.54 12.98a1.051 1.051 0 0 0-1.486 0l-2.139 2.138a1.051 1.051 0 0 0 1.487 1.486l2.138-2.138c.41-.41.41-1.076 0-1.487z"/>
        <path fill="#394553" d="M34.99 6.263a1.051 1.051 0 0 0-1.486 0l-2.139 2.139a1.051 1.051 0 0 0 1.487 1.486l2.139-2.138c.41-.41.41-1.076 0-1.487z"/>
    </g>
</svg>
