<svg xmlns="http://www.w3.org/2000/svg" width="126" height="20" viewBox="0 0 126 20">
    <g fill="none" fill-rule="nonzero">
        <path fill="#FFE365" d="M10.535 17.245l-4.795 2.52a1 1 0 0 1-1.45-1.054l.915-5.339a1 1 0 0 0-.288-.885l-3.879-3.78A1 1 0 0 1 1.592 7l5.361-.779a1 1 0 0 0 .753-.547L10.103.817a1 1 0 0 1 1.794 0l2.397 4.857a1 1 0 0 0 .753.547l5.36.78a1 1 0 0 1 .555 1.705l-3.88 3.781a1 1 0 0 0-.287.885l.916 5.34a1 1 0 0 1-1.451 1.053l-4.795-2.52a1 1 0 0 0-.93 0zM36.535 17.245l-4.795 2.52a1 1 0 0 1-1.45-1.054l.915-5.339a1 1 0 0 0-.288-.885l-3.879-3.78A1 1 0 0 1 27.592 7l5.361-.779a1 1 0 0 0 .753-.547L36.103.817a1 1 0 0 1 1.794 0l2.397 4.857a1 1 0 0 0 .753.547l5.36.78a1 1 0 0 1 .555 1.705l-3.88 3.781a1 1 0 0 0-.287.885l.916 5.34a1 1 0 0 1-1.451 1.053l-4.795-2.52a1 1 0 0 0-.93 0zM62.535 17.245l-4.795 2.52a1 1 0 0 1-1.45-1.054l.915-5.339a1 1 0 0 0-.288-.885l-3.879-3.78A1 1 0 0 1 53.592 7l5.361-.779a1 1 0 0 0 .753-.547L62.103.817a1 1 0 0 1 1.794 0l2.397 4.857a1 1 0 0 0 .753.547l5.36.78a1 1 0 0 1 .555 1.705l-3.88 3.781a1 1 0 0 0-.287.885l.916 5.34a1 1 0 0 1-1.451 1.053l-4.795-2.52a1 1 0 0 0-.93 0zM88.535 17.245l-4.795 2.52a1 1 0 0 1-1.45-1.054l.915-5.339a1 1 0 0 0-.288-.885l-3.879-3.78A1 1 0 0 1 79.592 7l5.361-.779a1 1 0 0 0 .753-.547L88.103.817a1 1 0 0 1 1.794 0l2.397 4.857a1 1 0 0 0 .753.547l5.36.78a1 1 0 0 1 .555 1.705l-3.88 3.781a1 1 0 0 0-.287.885l.916 5.34a1 1 0 0 1-1.451 1.053l-4.795-2.52a1 1 0 0 0-.93 0zM114.535 17.245l-4.795 2.52a1 1 0 0 1-1.45-1.054l.915-5.339a1 1 0 0 0-.288-.885l-3.879-3.78A1 1 0 0 1 105.592 7l5.361-.779a1 1 0 0 0 .753-.547l2.397-4.857a1 1 0 0 1 1.794 0l2.397 4.857a1 1 0 0 0 .753.547l5.36.78a1 1 0 0 1 .555 1.705l-3.88 3.781a1 1 0 0 0-.287.885l.916 5.34a1 1 0 0 1-1.451 1.053l-4.795-2.52a1 1 0 0 0-.93 0z"/>
        <path fill="#EEE" d="M118.527 6.146l5.88.854a1 1 0 0 1 .555 1.706l-4.256 4.148 1.005 5.857a1 1 0 0 1-1.451 1.054l-1.766-.928.033-12.691z"/>
    </g>
</svg>
