<svg xmlns="http://www.w3.org/2000/svg" width="33" height="48" viewBox="0 0 33 48">
    <g fill="#313493" fill-rule="evenodd">
        <path fill-rule="nonzero" d="M32.201 46.937l-2.498-4.783 1.227-1.13a.717.717 0 0 0 .095-.945l-4.528-6.273a.706.706 0 0 0-.572-.294h-.283V24.84c0-.313-.026-.62-.074-.92l2.15-.641a.729.729 0 0 0 .52-.803.708.708 0 0 0-.899-.571l-2.173.648a5.66 5.66 0 0 0-.187-.389l2.928-2.082a.716.716 0 0 0 .17-.993.704.704 0 0 0-.985-.172L24.163 21a5.73 5.73 0 0 0-.68-.635l2.302-3.855a.716.716 0 0 0-.241-.979.704.704 0 0 0-.97.244l-2.301 3.852a5.58 5.58 0 0 0-1.582-.443v-5.434c0-.39-.299-.73-.686-.742a.71.71 0 0 0-.729.712v5.464a5.573 5.573 0 0 0-1.582.443l-2.3-3.852a.704.704 0 0 0-.971-.243.716.716 0 0 0-.242.978l2.302 3.855c-.243.193-.47.405-.68.635l-2.928-2.082a.704.704 0 0 0-.986.172.716.716 0 0 0 .17.993l2.929 2.082c-.068.127-.13.257-.187.39l-2.173-.65a.707.707 0 0 0-.885.503c-.099.377.14.762.511.873l2.145.64c-.048.3-.075.606-.075.92v7.523l-1.393-.627-4.76-16.36v-4.39h1.308a.71.71 0 0 0 .707-.712V7.993a.71.71 0 0 0-.707-.713h-.913l.59-5.083a.735.735 0 0 0-.214-.622.704.704 0 0 0-.914-.049l-1.197.917-.69-1.947a.735.735 0 0 0-.458-.462.705.705 0 0 0-.844.35L3.647 2.699 2.182 1.545a.722.722 0 0 0-.65-.136.714.714 0 0 0-.503.782l.699 5.09H.708A.71.71 0 0 0 0 7.992v2.281a.71.71 0 0 0 .707.713h1.309v2.19a3.01 3.01 0 0 0 2.625 2.99l1.172 9.73c.047.39.4.669.787.621a.712.712 0 0 0 .617-.793L6.07 16.19h.864l4.628 15.907-3.104 3.92-.832-6.911a.709.709 0 0 0-.788-.622.712.712 0 0 0-.617.794l1 8.3-1.937 2.446a.717.717 0 0 0 .004.895l3.095 3.824v2.543A.71.71 0 0 0 9.09 48h22.495a.709.709 0 0 0 .673-.494.74.74 0 0 0-.057-.569zM3.448 4.35a.704.704 0 0 0 1.063-.233l.836-1.623.477 1.346a.703.703 0 0 0 1.094.328l.642-.492-.418 3.604H3.156L2.67 3.738l.778.612zm3.307 10.415H5.007a1.584 1.584 0 0 1-1.576-1.588v-2.19h3.324v3.778zM2.724 9.561h-1.31v-.855h7.357v.855H2.723zm17.26 11.002c2.021 0 3.716 1.432 4.14 3.342a5.624 5.624 0 0 0-4.14-1.822 5.624 5.624 0 0 0-4.141 1.822c.424-1.91 2.119-3.342 4.14-3.342zM15.74 31.03a5.628 5.628 0 0 0 4.244 1.936.71.71 0 0 0 .707-.713.71.71 0 0 0-.707-.713c-2.254 0-4.102-1.778-4.236-4.015.135-2.237 1.982-4.016 4.236-4.016 2.339 0 4.242 1.917 4.244 4.273v5.73H16.88L15.74 33v-1.97zm.297 15.544h-6.24v-1.846l3.606-4.846a.717.717 0 0 0-.141-.998.704.704 0 0 0-.99.143l-3.205 4.306-2.323-2.869 5.811-7.335 3.077 1.383-1.153 1.55a.717.717 0 0 0 .141.998.7.7 0 0 0 .99-.143l1.473-1.979h7.444l-8.49 11.636zm1.756 0l8.13-11.141 3.585 4.969-2.786 2.564a.717.717 0 0 0-.046 1.007.704.704 0 0 0 1 .046l.947-.872 1.79 3.427h-12.62z"/>
        <path d="M23.003 25.982l-2.765-.654a.718.718 0 0 0-.331 0l-2.764.654a.734.734 0 0 0 .331 1.43l1.872-.444v1.098a.73.73 0 0 0 .727.734.73.73 0 0 0 .726-.734v-1.098l1.872.443a.728.728 0 0 0 .873-.547.734.734 0 0 0-.541-.882z"/>
    </g>
</svg>
