<svg xmlns="http://www.w3.org/2000/svg" width="48" height="41" viewBox="0 0 48 41">
    <path fill="#394553" fill-rule="nonzero" d="M47.652 13.04a2.165 2.165 0 0 0-2.81-1.207L17.379 22.787c.042-.042.086-.082.134-.12L40.52 4.766a2.165 2.165 0 0 0 .379-3.034 4.496 4.496 0 0 0-6.303-.786L1.56 26.65a1.878 1.878 0 0 0-.328 2.633l1.664 2.138C1.935 32.514 0 35.305 0 40.08a.773.773 0 1 0 1.546 0c0-1.095.115-2.067.294-2.918.287-1.367.738-2.42 1.142-3.158l.037-.064c.223-.401.446-.736.646-1.007l.161.403c.268.671.882 1.102 1.555 1.17a1.863 1.863 0 0 0 1.123.372c.415 0 .816-.137 1.148-.395l1.72-1.34 35.773-14.267a4.496 4.496 0 0 0 2.507-5.835zm-3.08 4.4L13.76 29.728l2.62-2.039.423-3.01L45.416 13.27a.617.617 0 0 1 .801.344 2.948 2.948 0 0 1-1.645 3.826zM2.508 27.87L35.545 2.165a2.949 2.949 0 0 1 4.133.515.617.617 0 0 1-.108.866L16.563 21.448a3.029 3.029 0 0 0-1.145 1.979l-.021.15-.124.882-.124.882-.213 1.514-6.34 4.933-1.893 1.474a.329.329 0 0 1-.464-.058l-.282-.363-1.362-1.75-1.152-1.48-.526-.677-.466-.6a.33.33 0 0 1 .057-.463zm3.949 3.643a2.148 2.148 0 0 0 2.826-1.127 2.138 2.138 0 0 0 .022-1.647 2.165 2.165 0 0 0-1.513-1.297 2.138 2.138 0 0 0-2.28.91 2.155 2.155 0 0 0 .945 3.162zm.338-3.258a1.37 1.37 0 0 1 1.03.005 1.374 1.374 0 0 1 .748 1.82 1.37 1.37 0 0 1-.756.737 1.37 1.37 0 0 1-1.055-.014 1.37 1.37 0 0 1-.737-.756 1.37 1.37 0 0 1 .014-1.055l.012-.024c.147-.326.41-.58.744-.713z"/>
</svg>
