<svg xmlns="http://www.w3.org/2000/svg" width="36" height="56" viewBox="0 0 36 56">
    <g fill="#394553" fill-rule="evenodd">
        <path fill-rule="nonzero" d="M9.84 4.061c3.254 0 5.912 2.657 5.912 5.908l.008 27.589c3.325 2.521 4.706 6.774 3.505 10.723a9.852 9.852 0 0 1-18.852-.004c-1.2-3.949.286-8.373 3.521-10.72L3.93 9.97c0-3.251 2.658-5.908 5.911-5.908zm0 1.97A3.925 3.925 0 0 0 5.9 9.969l-.004 28.08c0 .33-.164.638-.438.82a7.867 7.867 0 0 0-3.16 8.835 7.875 7.875 0 0 0 7.543 5.588 7.872 7.872 0 0 0 4.383-14.419.984.984 0 0 1-.435-.82l-.008-28.08a3.925 3.925 0 0 0-3.94-3.938V6.03z"/>
        <path fill-rule="nonzero" d="M9.846 40.984a4.446 4.446 0 0 1 4.431 4.431 4.446 4.446 0 0 1-4.43 4.431 4.446 4.446 0 0 1-4.431-4.43 4.446 4.446 0 0 1 4.43-4.432zm0 1.97a2.447 2.447 0 0 0-2.461 2.461 2.447 2.447 0 0 0 2.461 2.462 2.447 2.447 0 0 0 2.462-2.462 2.447 2.447 0 0 0-2.462-2.461z"/>
        <path d="M8.86 27.691v14.277h1.97V27.691z"/>
        <path fill-rule="nonzero" d="M31.57 8.002c.257.015.499.131.672.323 0 0 .768.858 1.542 1.935.388.538.781 1.133 1.093 1.738.311.606.569 1.203.569 1.908a3.953 3.953 0 0 1-3.938 3.938 3.953 3.953 0 0 1-3.939-3.938c0-.705.258-1.302.57-1.908.311-.605.704-1.2 1.092-1.738.774-1.077 1.546-1.935 1.546-1.935a.985.985 0 0 1 .792-.323zm-.062 2.558c-.261.316-.34.38-.677.85a12.49 12.49 0 0 0-.939 1.492c-.242.47-.354.893-.354 1.004 0 1.099.87 1.969 1.97 1.969 1.099 0 1.969-.87 1.969-1.97 0-.11-.112-.533-.354-1.003a12.49 12.49 0 0 0-.938-1.492c-.338-.47-.416-.534-.677-.85zM23.692.125c.258.015.5.131.673.323 0 0 .768.858 1.543 1.935.387.538.78 1.133 1.092 1.738.312.606.57 1.203.57 1.908a3.953 3.953 0 0 1-3.94 3.938 3.953 3.953 0 0 1-3.938-3.938c0-.705.258-1.302.57-1.908.311-.605.704-1.2 1.092-1.738C22.128 1.306 22.9.448 22.9.448a.985.985 0 0 1 .792-.323zm-.061 2.558c-.261.316-.34.38-.677.85a12.49 12.49 0 0 0-.939 1.492c-.242.47-.354.893-.354 1.004 0 1.099.87 1.969 1.97 1.969 1.099 0 1.969-.87 1.969-1.97 0-.11-.112-.532-.354-1.003a12.49 12.49 0 0 0-.938-1.492c-.338-.47-.416-.534-.677-.85z"/>
    </g>
</svg>
